<svg xmlns="http://www.w3.org/2000/svg" xmlns:xlink="http://www.w3.org/1999/xlink" width="1242" zoomAndPan="magnify" viewBox="0 0 931.5 1241.999941" height="1656" preserveAspectRatio="xMidYMid meet" version="1.0"><defs><g/><clipPath id="26fe5c801d"><path d="M 37.167969 158.792969 L 99.527344 158.792969 L 99.527344 438.09375 L 37.167969 438.09375 Z M 37.167969 158.792969 " clip-rule="nonzero"/></clipPath></defs><g fill="#000000" fill-opacity="1"><g transform="translate(32.554329, 821.525153)"><g><path d="M 57.761719 186.9375 L 57.761719 -275.152344 L 89.269531 -275.152344 L 89.269531 186.9375 L 131.277344 186.9375 L 131.277344 -527.203125 L 89.269531 -527.203125 L 89.269531 -317.164062 L 57.761719 -317.164062 L 57.761719 -527.203125 L 15.753906 -527.203125 L 15.753906 186.9375 Z M 57.761719 186.9375 "/></g></g></g><g clip-path="url(#26fe5c801d)"><path fill="#ffffff" d="M 37.167969 158.792969 L 99.527344 158.792969 L 99.527344 438.179688 L 37.167969 438.179688 Z M 37.167969 158.792969 " fill-opacity="1" fill-rule="nonzero"/></g><g fill="#000000" fill-opacity="1"><g transform="translate(161.022614, 823.024349)"><g><path d="M 84.015625 186.9375 C 110.273438 186.9375 131.277344 165.933594 131.277344 139.675781 L 131.277344 -479.945312 C 131.277344 -506.199219 110.273438 -527.203125 84.015625 -527.203125 L 63.011719 -527.203125 C 36.757812 -527.203125 15.753906 -506.199219 15.753906 -479.945312 L 15.753906 139.675781 C 15.753906 165.933594 36.757812 186.9375 63.011719 186.9375 Z M 63.011719 144.929688 C 59.863281 144.929688 57.761719 142.828125 57.761719 139.675781 L 57.761719 -479.945312 C 57.761719 -483.09375 59.863281 -485.195312 63.011719 -485.195312 L 84.015625 -485.195312 C 87.167969 -485.195312 89.269531 -483.09375 89.269531 -479.945312 L 89.269531 139.675781 C 89.269531 142.828125 87.167969 144.929688 84.015625 144.929688 Z M 63.011719 144.929688 "/></g></g></g><g fill="#000000" fill-opacity="1"><g transform="translate(287.333354, 820.025958)"><g><path d="M 84.015625 186.9375 C 110.273438 186.9375 131.277344 165.933594 131.277344 139.675781 L 131.277344 -275.152344 L 89.269531 -275.152344 L 89.269531 139.675781 C 89.269531 142.828125 87.167969 144.929688 84.015625 144.929688 L 57.761719 144.929688 L 57.761719 -527.203125 L 15.753906 -527.203125 L 15.753906 186.9375 Z M 84.015625 186.9375 "/></g></g></g><g fill="#000000" fill-opacity="1"><g transform="translate(415.823646, 820.025958)"><g><path d="M 84.015625 186.9375 C 110.273438 186.9375 131.277344 165.933594 131.277344 139.675781 L 131.277344 -275.152344 L 89.269531 -275.152344 L 89.269531 139.675781 C 89.269531 142.828125 87.167969 144.929688 84.015625 144.929688 L 57.761719 144.929688 L 57.761719 -527.203125 L 15.753906 -527.203125 L 15.753906 186.9375 Z M 84.015625 186.9375 "/></g></g></g><g fill="#000000" fill-opacity="1"><g transform="translate(550.258927, 820.025958)"><g><path d="M 84.015625 186.9375 C 110.273438 186.9375 131.277344 165.933594 131.277344 139.675781 L 131.277344 -479.945312 C 131.277344 -506.199219 110.273438 -527.203125 84.015625 -527.203125 L 63.011719 -527.203125 C 36.757812 -527.203125 15.753906 -506.199219 15.753906 -479.945312 L 15.753906 139.675781 C 15.753906 165.933594 36.757812 186.9375 63.011719 186.9375 Z M 63.011719 144.929688 C 59.863281 144.929688 57.761719 142.828125 57.761719 139.675781 L 57.761719 -479.945312 C 57.761719 -483.09375 59.863281 -485.195312 63.011719 -485.195312 L 84.015625 -485.195312 C 87.167969 -485.195312 89.269531 -483.09375 89.269531 -479.945312 L 89.269531 139.675781 C 89.269531 142.828125 87.167969 144.929688 84.015625 144.929688 Z M 63.011719 144.929688 "/></g></g></g><g fill="#000000" fill-opacity="1"><g transform="translate(679.500517, 821.525153)"><g><path d="M 73.515625 186.9375 C 87.167969 186.9375 99.769531 182.210938 110.273438 173.808594 C 120.773438 182.210938 133.375 186.9375 147.027344 186.9375 L 204.789062 186.9375 L 204.789062 -527.203125 L 162.78125 -527.203125 L 162.78125 144.929688 L 147.027344 144.929688 C 138.101562 144.929688 131.277344 138.101562 131.277344 129.175781 L 131.277344 -527.203125 L 89.269531 -527.203125 L 89.269531 129.175781 C 89.269531 138.101562 82.441406 144.929688 73.515625 144.929688 L 57.761719 144.929688 L 57.761719 -527.203125 L 15.753906 -527.203125 L 15.753906 186.9375 Z M 73.515625 186.9375 "/></g></g></g><g fill="#000000" fill-opacity="1"><g transform="translate(406.517256, 541.659442)"><g><path d="M 11.847656 -3.015625 L -29.835938 -3.015625 L -29.835938 -0.824219 L 11.847656 -0.824219 Z M 11.847656 -3.015625 "/></g></g></g><g fill="#000000" fill-opacity="1"><g transform="translate(406.517256, 537.685501)"><g><path d="M 11.847656 -3.015625 L -29.835938 -3.015625 L -29.835938 -0.824219 L 11.847656 -0.824219 Z M 11.847656 -3.015625 "/></g></g></g><g fill="#000000" fill-opacity="1"><g transform="translate(406.517256, 533.711559)"><g><path d="M 11.847656 -3.015625 L -29.835938 -3.015625 L -29.835938 -0.824219 L 11.847656 -0.824219 Z M 11.847656 -3.015625 "/></g></g></g><g fill="#000000" fill-opacity="1"><g transform="translate(406.517256, 529.737618)"><g><path d="M 11.847656 -3.015625 L -29.835938 -3.015625 L -29.835938 -0.824219 L 11.847656 -0.824219 Z M 11.847656 -3.015625 "/></g></g></g><g fill="#000000" fill-opacity="1"><g transform="translate(406.517256, 525.763677)"><g><path d="M 11.847656 -3.015625 L -29.835938 -3.015625 L -29.835938 -0.824219 L 11.847656 -0.824219 Z M 11.847656 -3.015625 "/></g></g></g><g fill="#000000" fill-opacity="1"><g transform="translate(406.517256, 521.789736)"><g><path d="M 11.847656 -3.015625 L -29.835938 -3.015625 L -29.835938 -0.824219 L 11.847656 -0.824219 Z M 11.847656 -3.015625 "/></g></g></g><g fill="#000000" fill-opacity="1"><g transform="translate(406.517256, 517.815794)"><g><path d="M 11.847656 -3.015625 L -29.835938 -3.015625 L -29.835938 -0.824219 L 11.847656 -0.824219 Z M 11.847656 -3.015625 "/></g></g></g><g fill="#000000" fill-opacity="1"><g transform="translate(406.517256, 513.841853)"><g><path d="M 11.847656 -3.015625 L -29.835938 -3.015625 L -29.835938 -0.824219 L 11.847656 -0.824219 Z M 11.847656 -3.015625 "/></g></g></g><g fill="#000000" fill-opacity="1"><g transform="translate(406.517256, 509.867912)"><g><path d="M 11.847656 -3.015625 L -29.835938 -3.015625 L -29.835938 -0.824219 L 11.847656 -0.824219 Z M 11.847656 -3.015625 "/></g></g></g><g fill="#000000" fill-opacity="1"><g transform="translate(406.517256, 505.893971)"><g><path d="M 11.847656 -3.015625 L -29.835938 -3.015625 L -29.835938 -0.824219 L 11.847656 -0.824219 Z M 11.847656 -3.015625 "/></g></g></g><g fill="#000000" fill-opacity="1"><g transform="translate(406.517256, 501.920029)"><g><path d="M 11.847656 -3.015625 L -29.835938 -3.015625 L -29.835938 -0.824219 L 11.847656 -0.824219 Z M 11.847656 -3.015625 "/></g></g></g><g fill="#000000" fill-opacity="1"><g transform="translate(406.517256, 497.946088)"><g><path d="M 11.847656 -3.015625 L -29.835938 -3.015625 L -29.835938 -0.824219 L 11.847656 -0.824219 Z M 11.847656 -3.015625 "/></g></g></g><g fill="#000000" fill-opacity="1"><g transform="translate(406.517256, 493.972147)"><g><path d="M 11.847656 -3.015625 L -29.835938 -3.015625 L -29.835938 -0.824219 L 11.847656 -0.824219 Z M 11.847656 -3.015625 "/></g></g></g><g fill="#000000" fill-opacity="1"><g transform="translate(406.517256, 489.998205)"><g><path d="M 11.847656 -3.015625 L -29.835938 -3.015625 L -29.835938 -0.824219 L 11.847656 -0.824219 Z M 11.847656 -3.015625 "/></g></g></g><g fill="#000000" fill-opacity="1"><g transform="translate(406.517256, 486.024264)"><g><path d="M 11.847656 -3.015625 L -29.835938 -3.015625 L -29.835938 -0.824219 L 11.847656 -0.824219 Z M 11.847656 -3.015625 "/></g></g></g><g fill="#000000" fill-opacity="1"><g transform="translate(406.517256, 482.050323)"><g><path d="M 11.847656 -3.015625 L -29.835938 -3.015625 L -29.835938 -0.824219 L 11.847656 -0.824219 Z M 11.847656 -3.015625 "/></g></g></g><g fill="#000000" fill-opacity="1"><g transform="translate(43.798293, 338.404378)"><g><path d="M 7.460938 -31.757812 L 41.574219 -31.757812 L 41.574219 -25.328125 L 45.253906 -25.328125 L 45.253906 -35.09375 L 27.632812 -35.09375 C 26.945312 -36.863281 25.671875 -39.414062 24.640625 -41.328125 L 20.859375 -40.25 C 21.644531 -38.726562 22.53125 -36.761719 23.265625 -35.09375 L 3.878906 -35.09375 L 3.878906 -24.148438 L 7.460938 -24.148438 Z M 27.632812 -26.308594 C 32.640625 -23.707031 39.265625 -19.878906 42.507812 -17.523438 L 44.910156 -20.320312 C 41.476562 -22.628906 34.800781 -26.308594 29.941406 -28.664062 Z M 6.480469 -17.082031 C 12.171875 -19.535156 17.523438 -23.214844 21.402344 -26.652344 L 18.898438 -28.8125 C 15.117188 -25.574219 10.109375 -22.285156 4.320312 -20.222656 Z M 26.359375 -1.226562 L 26.359375 -13.546875 L 40.347656 -13.546875 L 40.347656 -16.886719 L 8.980469 -16.886719 L 8.980469 -13.546875 L 22.578125 -13.546875 L 22.578125 -1.226562 L 3.925781 -1.226562 L 3.925781 2.160156 L 45.304688 2.160156 L 45.304688 -1.226562 Z M 26.359375 -1.226562 "/></g></g></g><g fill="#000000" fill-opacity="1"><g transform="translate(43.798293, 406.61776)"><g><path d="M 26.308594 -15.753906 L 26.308594 -28.761719 L 40.394531 -28.761719 L 40.394531 -15.753906 Z M 8.492188 -15.753906 L 8.492188 -28.761719 L 22.53125 -28.761719 L 22.53125 -15.753906 Z M 26.308594 -32.347656 L 26.308594 -41.082031 L 22.53125 -41.082031 L 22.53125 -32.347656 L 4.910156 -32.347656 L 4.910156 -9.128906 L 8.492188 -9.128906 L 8.492188 -12.171875 L 22.53125 -12.171875 L 22.53125 3.730469 L 26.308594 3.730469 L 26.308594 -12.171875 L 40.394531 -12.171875 L 40.394531 -9.375 L 44.125 -9.375 L 44.125 -32.347656 Z M 26.308594 -32.347656 "/></g></g></g></svg>